<svg xmlns="http://www.w3.org/2000/svg" width="24" height="24">
  <path d="M1.53 23.896c-1.255 0-1.809-.912-1.23-2.026L10.936 1.388c.578-1.115 1.525-1.115 2.104 0L23.678 21.87c.58 1.114.025 2.026-1.23 2.026z" fill="#ffcc4d"/>
  <path d="M10.469 7.308c0-.887.655-1.436 1.52-1.436.846 0 1.523.57 1.523 1.436v8.136c0 .866-.677 1.437-1.522 1.437-.866 0-1.521-.55-1.521-1.437zm-.127 12.467c0-.908.74-1.648 1.648-1.648.908 0 1.648.74 1.648 1.648 0 .91-.74 1.649-1.648 1.649a1.65 1.65 0 0 1-1.648-1.649" fill="#231f20"/>
</svg>
