<!DOCTYPE svg PUBLIC "-//W3C//DTD SVG 20010904//EN" "http://www.w3.org/TR/2001/REC-SVG-20010904/DTD/svg10.dtd">
<svg version="1.0" xmlns="http://www.w3.org/2000/svg" width="256px" height="256px" viewBox="0 0 2560 2560" preserveAspectRatio="xMidYMid meet">
<g id="layer101" fill="#e0f7ff" stroke="none">
 <path d="M1132 2520 c-468 -59 -854 -355 -1026 -787 -52 -131 -76 -246 -82 -403 -15 -351 103 -663 346 -914 185 -191 413 -315 675 -367 106 -21 388 -18 495 5 247 53 465 171 639 345 238 239 361 539 361 881 0 344 -119 630 -364 876 -233 234 -516 356 -853 368 -65 3 -151 1 -191 -4z m373 -185 c314 -65 594 -278 743 -563 94 -181 128 -334 120 -539 -10 -235 -83 -432 -230 -619 -142 -182 -347 -315 -584 -381 -91 -26 -113 -28 -274 -27 -157 0 -185 3 -272 26 -386 105 -683 402 -785 786 -23 84 -26 118 -27 252 0 174 11 240 67 388 49 132 118 240 224 352 170 179 378 293 603 330 41 6 82 13 90 15 35 9 251 -5 325 -20z"/>
 <path d="M542 1843 c-7 -3 -19 -18 -27 -33 -13 -25 -15 -110 -15 -555 0 -555 1 -572 45 -589 9 -3 343 -6 741 -6 l725 0 24 25 25 24 0 546 0 546 -25 24 -24 25 -728 -1 c-400 0 -734 -3 -741 -6z m1348 -499 c0 -256 -3 -333 -12 -328 -6 4 -138 104 -292 223 -243 187 -286 216 -316 216 -30 0 -71 -28 -305 -209 -149 -115 -276 -213 -282 -218 -10 -8 -13 57 -13 321 l0 331 610 0 610 0 0 -336z m-330 -301 l271 -208 -281 -3 c-154 -1 -405 -1 -558 0 l-278 3 275 213 c152 117 281 210 288 208 6 -3 133 -98 283 -213z"/>
 </g>

</svg>